<svg xmlns="http://www.w3.org/2000/svg" xmlns:xlink="http://www.w3.org/1999/xlink" x="0" y="0" width="522.629" height="481.334" viewBox="0, 0, 522.629, 481.334"><g id="Layer_1"><path d="M522.157,10.637 C508.743,44.986 493.702,79.336 482.117,114.498 C478.865,124.864 462.402,120.393 465.857,110.027 C472.971,88.279 481.508,66.734 490.044,45.393 C459.353,76.897 419.923,99.661 380.899,119.783 C325.615,148.238 269.722,176.49 209.763,193.767 C196.349,197.628 182.731,201.287 168.91,204.336 C160.577,214.905 151.227,224.864 142.284,234.824 C120.74,258.401 97.976,280.962 77.854,305.759 C56.92,331.368 37.408,360.027 26.229,391.328 C20.741,406.572 16.676,422.425 17.083,438.482 C17.286,447.628 17.489,461.246 26.839,465.718 C36.595,470.596 28.058,485.23 18.302,480.352 C2.652,472.628 -0.193,451.897 0.01,436.246 C0.62,410.84 8.75,385.84 20.132,363.076 C43.708,315.921 79.074,277.71 114.642,239.702 C124.195,229.539 133.748,219.376 143.097,208.807 C122.366,211.653 101.431,212.466 80.903,209.214 C65.253,206.775 48.18,201.897 37.814,189.295 C26.635,176.084 27.652,156.572 35.172,141.734 C54.074,104.946 106.106,84.011 145.74,86.653 C164.642,87.872 188.422,95.393 196.755,114.295 C204.885,132.791 200.617,152.507 191.877,169.783 Q188.219,176.694 184.154,183.401 Q186.796,182.588 189.438,181.978 C251.836,165.311 309.355,137.466 366.468,108.198 C410.98,85.433 458.337,59.824 490.247,19.986 Q450.207,25.271 409.964,30.555 C399.192,31.978 399.395,15.108 409.964,13.685 Q461.996,6.775 514.027,0.068 C519.312,-0.745 524.19,5.962 522.157,10.637 z M159.357,189.092 Q163.219,184.214 166.674,179.133 C176.024,165.515 186.186,148.238 184.357,130.962 C182.324,112.669 162.406,104.133 145.74,103.523 C127.854,102.913 109.358,106.775 93.098,114.092 C74.806,122.425 52.448,135.84 47.57,156.775 C43.505,173.848 52.855,184.62 68.911,189.295 C97.773,198.035 129.48,195.189 159.357,189.092 z" id="&lt;Compound_Path&gt;"></path></g></svg>