<svg xmlns="http://www.w3.org/2000/svg" xmlns:xlink="http://www.w3.org/1999/xlink" x="0" y="0" width="729.764" height="348.4" viewBox="0, 0, 729.764, 348.4"><g id="Layer_1"><path d="M729.696,8.523 Q720.144,80.067 710.591,151.612 C709.168,162.181 692.298,162.384 693.721,151.612 Q701.038,96.734 708.355,41.856 C662.624,89.823 616.08,137.384 568.316,183.523 C539.861,211.165 511,238.604 480.513,264.01 C458.765,282.1 436.001,302.425 406.327,303.441 C361.205,305.067 334.783,272.344 316.084,236.165 C298.401,202.019 284.783,166.246 267.101,132.1 C251.857,103.035 233.158,68.685 202.061,54.254 C166.899,37.791 126.046,58.929 99.217,82.1 C32.348,140.027 -7.286,251.612 32.145,335.555 C36.616,345.311 22.185,353.848 17.511,344.092 C-26.391,250.393 16.698,122.547 97.388,61.978 C126.046,40.636 166.086,22.344 201.858,35.962 C233.768,48.157 255.312,76.815 271.776,105.474 C291.084,139.214 305.312,175.189 321.978,210.149 C338.035,243.482 358.969,288.401 402.871,286.775 C432.139,285.555 454.497,264.214 476.244,245.514 C507.138,218.888 536.609,190.84 565.877,162.384 C611.405,117.872 655.917,72.344 699.819,26.206 Q641.689,49.58 583.763,72.954 C573.804,77.019 569.333,60.758 579.292,56.693 Q649.21,28.645 719.127,0.393 C723.802,-1.437 730.509,3.441 729.696,8.523 z" id="&lt;Path&gt;"></path></g></svg>